<svg xmlns="http://www.w3.org/2000/svg" width="574.038" height="501.467" viewBox="0 0 574.038 501.467">
  <g id="Group_295" data-name="Group 295" transform="translate(-124.257 -58.094)">
    <g id="Group_270" data-name="Group 270" transform="translate(124.257 287.916)">
      <path id="Path_77" data-name="Path 77" d="M170.681,125H132.206l13.958,57.336L177.472,301.9h403.6L627.838,123.49l-299.87-2.06-2.447,71.581-23.576,1.016-8.3-17.732-3.393-3.769-5.28,13.957-6.389,17.35-1.53,5.656s-8.3-2.065-9.054-3.111-10.9-9.336-10.9-9.336-6.082-12.447-7.211-14.71,0-16.6,0-16.6-2.64-5.28-4.146,3.774-.218,17.35-3.5,23.007-1.4,2.64-4.042,8.3-6.241,3.774-8.4,3.021a21.338,21.338,0,0,1-7.444-4.566c-2.264-2.224-6.033-9.768-6.033-9.768s-2.64-10.941-3.4-13.957-3.016-10.936-3.016-10.936l-1.511-8.3s-4.26-.753-5.9,4.527-1.268,5.28-2.021,10.56-7.544.377-7.544.377.376,3.774-5.28,2.263a34.361,34.361,0,0,1-10.56-5.28l-4.527-6.791-1.134-7.543s1.511-14.71,1.887-16.216S170.681,125,170.681,125Z" transform="translate(-92.835 -39.136)" fill="#cecece"/>
      <g id="Group_264" data-name="Group 264" transform="translate(31.624 82.294)">
        <path id="Path_78" data-name="Path 78" d="M594.238,310.781h-416.4L130.642,125.087l14.4-3.657,44.35,174.492H582.683l44.35-174.492,14.4,3.657Z" transform="translate(-130.642 -121.43)"/>
      </g>
      <g id="Group_265" data-name="Group 265" transform="translate(0 28.361)">
        <path id="Path_79" data-name="Path 79" d="M196.576,173.731H153.534a29.31,29.31,0,0,1-29.277-29.282v-4.626a29.313,29.313,0,0,1,29.277-29.282h44.631V125.4H153.534a14.44,14.44,0,0,0-14.418,14.423v4.626a14.436,14.436,0,0,0,14.418,14.423h43.041Z" transform="translate(-124.257 -110.541)"/>
      </g>
      <g id="Group_266" data-name="Group 266" transform="translate(69.912)">
        <path id="Path_80" data-name="Path 80" d="M285.942,264.946c-28.331,0-28.331-38.549-28.331-64.062V140.605H272.47v60.278c0,19.594,0,49.2,13.472,49.2a6,6,0,0,0,4.656-1.857c7.023-7.088,6.835-30.144,6.731-42.536l-.03-4.809c0-18.593.059-60.288.059-60.288l.436-13.071a7.6,7.6,0,0,0-7.588-7.851H165.673c-12.179,0-12.442,20.743-12.442,20.951V192.85c0,24.562,2.085,37.034,13.472,37.034,3.4,0,4.983-1.169,5.988-2.184,5.661-5.721,5.493-21.565,5.394-31.031l-.03-3.819c0-14.6.064-52.259.064-52.259l14.859.03s-.064,37.643-.064,52.229l.03,3.655c.134,12.556.337,31.516-9.688,41.65a22.7,22.7,0,0,1-16.553,6.588c-28.331,0-28.331-32.487-28.331-51.893V140.605c0-12.382,5.706-35.79,27.3-35.79H290.206a22.454,22.454,0,0,1,22.437,23.2l-.431,12.833s-.054,41.5-.054,60.03l.03,4.691c.144,17.568.342,41.64-11.04,53.116A20.951,20.951,0,0,1,285.942,264.946Z" transform="translate(-138.372 -104.815)"/>
      </g>
      <g id="Group_267" data-name="Group 267" transform="translate(241.172 28.356)">
        <path id="Path_81" data-name="Path 81" d="M476.533,173.735H172.949V158.876H476.533a14.437,14.437,0,0,0,14.423-14.423v-4.631A14.441,14.441,0,0,0,476.533,125.4H172.949V110.54H476.533a29.318,29.318,0,0,1,29.282,29.282v4.631A29.315,29.315,0,0,1,476.533,173.735Z" transform="translate(-172.949 -110.54)"/>
      </g>
      <g id="Group_268" data-name="Group 268" transform="translate(109.664 35.78)">
        <path id="Path_82" data-name="Path 82" d="M174.719,243.5C146.4,243.5,146.4,204,146.4,175.15v-63.1h14.859v63.1c0,21.3,0,53.492,13.462,53.492a5.518,5.518,0,0,0,4.259-1.743c7.43-7.494,7.231-32.918,7.128-46.573l-.03-5.176c0-20,.064-63.111.064-63.111l14.859.02s-.064,43.106-.064,63.091l.03,5.057c.144,19.109.352,45.275-11.441,57.157A20.422,20.422,0,0,1,174.719,243.5Z" transform="translate(-146.398 -112.039)"/>
      </g>
      <g id="Group_269" data-name="Group 269" transform="translate(149.407 35.78)">
        <path id="Path_83" data-name="Path 83" d="M182.748,248.36c-28.326,0-28.326-41.2-28.326-71.274V112.049h14.859v65.038c0,21.1,0,56.415,13.467,56.415a5.191,5.191,0,0,0,4-1.674c7.692-7.746,7.494-34.79,7.385-49.322l-.03-5.419c0-20.961.059-65.048.059-65.048l14.859.02s-.06,44.077-.06,65.028l.03,5.3c.148,20.159.352,47.767-11.7,59.907A20.083,20.083,0,0,1,182.748,248.36Z" transform="translate(-154.422 -112.039)"/>
      </g>
    </g>
    <g id="Group_273" data-name="Group 273" transform="translate(478.332 114.236)">
      <path id="Path_84" data-name="Path 84" d="M213.359,70.457l-4.253,51.81,59.021,7.636L273.6,82.96Z" transform="translate(-142.924 -66.953)" fill="#cecece"/>
      <g id="Group_271" data-name="Group 271" transform="translate(0 51.742)">
        <path id="Path_85" data-name="Path 85" d="M352.66,233.8l-14.78-1.5,7.8-77.014A52.825,52.825,0,0,0,298.5,97.482l-21.189-2.15a52.826,52.826,0,0,0-57.821,47.182l-8.96,88.535-14.785-1.5,8.965-88.53a67.679,67.679,0,0,1,74.1-60.471L300,82.7a67.7,67.7,0,0,1,60.466,74.087Z" transform="translate(-195.744 -80.196)"/>
      </g>
      <g id="Group_272" data-name="Group 272" transform="translate(59.055 0)">
        <path id="Path_86" data-name="Path 86" d="M280.707,132.7l-14.762-1.712,4.6-39.726-43.513-5.042-4.607,39.73-14.762-1.712,6.319-54.488,73.033,8.462Z" transform="translate(-207.667 -69.749)"/>
      </g>
    </g>
    <g id="Group_278" data-name="Group 278" transform="translate(198.463 58.729)">
      <path id="Path_87" data-name="Path 87" d="M151.91,60.265V103.7l54.78,3.536,29.515,38.841s98.882,11.337,100.4-7.43c0,0,16.132-20.035,12.482-31.412s-31.036-38.485-31.036-38.485L295.23,60.265Z" transform="translate(-89.151 -51.734)" fill="#cecece"/>
      <g id="Group_274" data-name="Group 274" transform="translate(55.993 2.161)">
        <path id="Path_88" data-name="Path 88" d="M316.861,158.594H242.487l-36.142-38.41h-55.8v-61.2H309.575L343,84.4c1.045.793,2.041,1.521,2.982,2.214,7.553,5.557,14.071,10.352,14.071,23.923v4.854A43.244,43.244,0,0,1,316.861,158.594Zm-67.955-14.859h67.955A28.37,28.37,0,0,0,345.2,115.394V110.54c0-6.058-1.382-7.073-8.014-11.952-1-.738-2.055-1.511-3.17-2.358L304.567,73.838H165.4v31.486h47.361Z" transform="translate(-150.544 -58.979)"/>
      </g>
      <g id="Group_275" data-name="Group 275" transform="translate(73.849 59.012)">
        <path id="Path_89" data-name="Path 89" d="M176.16,159.74l-22.011-21.3,6.642-5.275c.139-.109,14.057-11.228,21.382-23.9,5.968-10.317,8.321-31.511,8.727-38.807l14.834.822c-.069,1.213-1.748,29.951-10.7,45.424-5.33,9.218-13.18,17.425-18.668,22.561l2.937,2.843c9.391-5.017,31.278-19.525,35.147-47.3l14.72,2.051c-6.058,43.448-46.8,60.372-48.535,61.075Z" transform="translate(-154.149 -70.457)"/>
      </g>
      <g id="Group_276" data-name="Group 276" transform="translate(111.541 94.347)">
        <path id="Path_90" data-name="Path 90" d="M176.083,221.847l-14.324-3.967,26.211-94.711A28.558,28.558,0,0,1,213.4,102.381V77.591h14.859v39.485l-12.977.094a13.626,13.626,0,0,0-12.992,9.956Z" transform="translate(-161.759 -77.591)"/>
      </g>
      <g id="Group_277" data-name="Group 277" transform="translate(218.893 94.347)">
        <path id="Path_91" data-name="Path 91" d="M225.89,245.22,206.484,123.386a6.63,6.63,0,0,0-6.533-6.256H183.433V77.591h14.859v24.681h1.659a21.317,21.317,0,0,1,21.258,19.183l19.351,121.423Z" transform="translate(-183.433 -77.591)"/>
      </g>
      <path id="Path_145" data-name="Path 145" d="M23.562,10.836-5.977.75" transform="translate(10.299 -0.75)" fill="none" stroke="#000" stroke-linecap="round" stroke-width="1" opacity="0"/>
      <path id="Path_146" data-name="Path 146" d="M27.385,1.917H-6.477" transform="translate(6.477 25.461)" fill="none" stroke="#000" stroke-linecap="round" stroke-width="1" opacity="0"/>
      <path id="Path_147" data-name="Path 147" d="M20.6,1.917-6.06,11.282" transform="translate(13.265 42.751)" fill="none" stroke="#000" stroke-linecap="round" stroke-width="1" opacity="0"/>
    </g>
  </g>
</svg>
